<svg width="24" height="25" viewBox="0 0 24 25" fill="none" xmlns="http://www.w3.org/2000/svg">
<g clip-path="url(#clip0_68_151)">
<path d="M1.11944 9.46168L11.7962 2.10537C11.8644 2.05838 11.9545 2.05829 12.0228 2.10514L22.7464 9.46157C22.8043 9.50129 22.8043 9.58676 22.7464 9.62649L12.0228 16.983C11.9545 17.0298 11.8644 17.0297 11.7962 16.9827L1.11944 9.62637C1.06175 9.58663 1.06175 9.50143 1.11944 9.46168Z" fill="#486F6C"/>
<path d="M11.5125 1.69364L0.83575 9.04995L1.40312 9.87341L12.0799 2.51711L11.5125 1.69364ZM0.835751 10.0381L11.5125 17.3945L12.0799 16.571L1.40312 9.21464L0.835751 10.0381ZM12.3056 17.3953L23.0292 10.0388L22.4635 9.21418L11.74 16.5706L12.3056 17.3953ZM23.0292 9.04926L12.3056 1.69283L11.74 2.51745L22.4635 9.87387L23.0292 9.04926ZM23.0292 10.0388C23.3767 9.80044 23.3767 9.28761 23.0292 9.04926L22.4635 9.87387C22.2319 9.71497 22.2319 9.37308 22.4635 9.21418L23.0292 10.0388ZM11.5125 17.3945C11.7512 17.5589 12.0666 17.5592 12.3056 17.3953L11.74 16.5706C11.8424 16.5004 11.9776 16.5005 12.0799 16.571L11.5125 17.3945ZM0.83575 9.04995C0.489646 9.28842 0.489645 9.79964 0.835751 10.0381L1.40312 9.21464C1.63386 9.37362 1.63386 9.71443 1.40312 9.87341L0.83575 9.04995ZM12.0799 2.51711C11.9776 2.58759 11.8424 2.58773 11.74 2.51745L12.3056 1.69283C12.0666 1.52885 11.7512 1.52917 11.5125 1.69364L12.0799 2.51711Z" fill="#486F6C"/>
<path d="M2.64153 14.7429C2.87114 14.5895 2.93292 14.279 2.77951 14.0494C2.6261 13.8198 2.3156 13.758 2.08599 13.9114L2.64153 14.7429ZM21.774 13.9109C21.5441 13.7579 21.2337 13.8203 21.0808 14.0503C20.9278 14.2802 20.9902 14.5905 21.2201 14.7435L21.774 13.9109ZM0.846755 15.7372L11.5209 22.8689L12.0765 22.0374L1.4023 14.9057L0.846755 15.7372ZM12.2975 22.8696L23.0185 15.7379L22.4646 14.9053L11.7436 22.037L12.2975 22.8696ZM2.08599 13.9114L0.846755 14.7394L1.4023 15.5709L2.64153 14.7429L2.08599 13.9114ZM23.0185 14.7387L21.774 13.9109L21.2201 14.7435L22.4646 15.5713L23.0185 14.7387ZM23.0185 15.7379C23.3754 15.5004 23.3754 14.9762 23.0185 14.7387L22.4646 15.5713C22.2267 15.4131 22.2267 15.0635 22.4646 14.9053L23.0185 15.7379ZM11.5209 22.8689C11.7559 23.0259 12.0622 23.0262 12.2975 22.8696L11.7436 22.037C11.8445 21.97 11.9758 21.9701 12.0765 22.0374L11.5209 22.8689ZM1.4023 14.9057C1.63934 15.0641 1.63934 15.4125 1.4023 15.5709L0.846755 14.7394C0.491185 14.977 0.491186 15.4996 0.846755 15.7372L1.4023 14.9057Z" fill="white"/>
</g>
<defs>
<clipPath id="clip0_68_151">
<rect width="24" height="24" fill="white" transform="translate(0 0.0273438)"/>
</clipPath>
</defs>
</svg>
