<svg width="24" height="25" viewBox="0 0 24 25" fill="none" xmlns="http://www.w3.org/2000/svg">
<g clip-path="url(#clip0_68_166)">
<g clip-path="url(#clip1_68_166)">
<g clip-path="url(#clip2_68_166)">
<path fill-rule="evenodd" clip-rule="evenodd" d="M10 16.0273C14.9706 16.0273 19 12.6694 19 8.52734C19 4.3852 14.9706 1.02734 10 1.02734C5.02944 1.02734 1 4.3852 1 8.52734C1 10.3134 1.7492 11.9536 3 13.2417V18.0273L6.46672 15.4273C7.55148 15.8135 8.74578 16.0273 10 16.0273Z" fill="white"/>
<path d="M3 13.2417H3.5C3.5 13.1117 3.44932 12.9867 3.35871 12.8934L3 13.2417ZM3 18.0273H2.5C2.5 18.2167 2.607 18.3898 2.77639 18.4745C2.94579 18.5592 3.14849 18.5409 3.3 18.4273L3 18.0273ZM6.46672 15.4273L6.63444 14.9562C6.47648 14.9 6.30086 14.9267 6.16672 15.0273L6.46672 15.4273ZM18.5 8.52734C18.5 12.3118 14.7837 15.5273 10 15.5273V16.5273C15.1575 16.5273 19.5 13.0271 19.5 8.52734H18.5ZM10 1.52734C14.7837 1.52734 18.5 4.74283 18.5 8.52734H19.5C19.5 4.02758 15.1575 0.527344 10 0.527344V1.52734ZM1.5 8.52734C1.5 4.74283 5.21635 1.52734 10 1.52734V0.527344C4.84252 0.527344 0.5 4.02758 0.5 8.52734H1.5ZM3.35871 12.8934C2.18669 11.6864 1.5 10.1673 1.5 8.52734H0.5C0.5 10.4595 1.31171 12.2208 2.64129 13.5901L3.35871 12.8934ZM3.5 18.0273V13.2417H2.5V18.0273H3.5ZM6.16672 15.0273L2.7 17.6273L3.3 18.4273L6.76672 15.8273L6.16672 15.0273ZM10 15.5273C8.80255 15.5273 7.665 15.3232 6.63444 14.9562L6.299 15.8983C7.43796 16.3038 8.68901 16.5273 10 16.5273V15.5273Z" fill="black"/>
<path fill-rule="evenodd" clip-rule="evenodd" d="M16.5 21.0273C12.9101 21.0273 10 18.5649 10 15.5273C10 12.4897 12.9101 10.0273 16.5 10.0273C20.0899 10.0273 23 12.4897 23 15.5273C23 16.8548 22.4442 18.0725 21.5187 19.0227C21.4722 19.0705 21.4453 19.1343 21.4453 19.201V21.538C21.4453 21.742 21.2141 21.8601 21.0488 21.7405L19.4269 20.5676C19.3571 20.517 19.2662 20.5064 19.1857 20.5373C18.3671 20.852 17.4577 21.0273 16.5 21.0273Z" fill="#3B706C"/>
<mask id="mask0_68_166" style="mask-type:luminance" maskUnits="userSpaceOnUse" x="9" y="9" width="15" height="15">
<path d="M24 9.02734H9V23.0273H24V9.02734Z" fill="white"/>
<path fill-rule="evenodd" clip-rule="evenodd" d="M16.5 21.0273C12.9101 21.0273 10 18.5649 10 15.5273C10 12.4897 12.9101 10.0273 16.5 10.0273C20.0899 10.0273 23 12.4897 23 15.5273C23 16.8548 22.4442 18.0725 21.5187 19.0227C21.4722 19.0705 21.4453 19.1343 21.4453 19.201V21.538C21.4453 21.742 21.2141 21.8601 21.0488 21.7405L19.4269 20.5676C19.3571 20.517 19.2662 20.5064 19.1857 20.5373C18.3671 20.852 17.4577 21.0273 16.5 21.0273Z" fill="black"/>
</mask>
<g mask="url(#mask0_68_166)">
<path d="M11 15.5273C11 17.8625 13.2993 20.0273 16.5 20.0273V22.0273C12.521 22.0273 9 19.2672 9 15.5273H11ZM16.5 11.0273C13.2993 11.0273 11 13.1921 11 15.5273H9C9 11.7874 12.521 9.02734 16.5 9.02734V11.0273ZM22 15.5273C22 13.1921 19.7007 11.0273 16.5 11.0273V9.02734C20.479 9.02734 24 11.7874 24 15.5273H22ZM20.8023 18.325C21.5685 17.5383 22 16.5635 22 15.5273H24C24 17.1461 23.3198 18.6066 22.2351 19.7204L20.8023 18.325ZM20.4453 21.538V19.201H22.4453V21.538H20.4453ZM20.013 19.7573L21.6348 20.9302L20.4628 22.5508L18.8409 21.3779L20.013 19.7573ZM16.5 20.0273C17.3358 20.0273 18.1234 19.8743 18.8269 19.6039L19.5445 21.4707C18.6107 21.8297 17.5797 22.0273 16.5 22.0273V20.0273ZM18.8409 21.3779C19.0535 21.5316 19.3195 21.5572 19.5445 21.4707L18.8269 19.6039C19.2129 19.4556 19.6606 19.5024 20.013 19.7573L18.8409 21.3779ZM22.4453 21.538C22.4453 22.5581 21.2894 23.1486 20.4628 22.5508L21.6348 20.9302C21.1389 20.5716 20.4453 20.9259 20.4453 21.538H22.4453ZM22.2351 19.7204C22.3637 19.5884 22.4453 19.4044 22.4453 19.201H20.4453C20.4453 18.8642 20.5806 18.5527 20.8023 18.325L22.2351 19.7204Z" fill="white"/>
</g>
</g>
</g>
</g>
<defs>
<clipPath id="clip0_68_166">
<rect width="24" height="24" fill="white" transform="translate(0 0.0273438)"/>
</clipPath>
<clipPath id="clip1_68_166">
<rect width="24" height="24" fill="white" transform="translate(0 0.0273438)"/>
</clipPath>
<clipPath id="clip2_68_166">
<rect width="24" height="24" fill="white" transform="translate(0 0.0273438)"/>
</clipPath>
</defs>
</svg>
