<svg width="24" height="24" viewBox="0 0 24 24" fill="none" xmlns="http://www.w3.org/2000/svg">
<g clip-path="url(#clip0_68_179)">
<g clip-path="url(#clip1_68_179)">
<g clip-path="url(#clip2_68_179)">
<mask id="mask0_68_179" style="mask-type:luminance" maskUnits="userSpaceOnUse" x="0" y="0" width="24" height="16">
<path fill-rule="evenodd" clip-rule="evenodd" d="M5.99916 8.02734C8.2083 8.02734 9.99916 6.23648 9.99916 4.02734C9.99916 1.8182 8.2083 0.0273438 5.99916 0.0273438C3.79002 0.0273438 1.99916 1.8182 1.99916 4.02734C1.99916 6.23648 3.79002 8.02734 5.99916 8.02734ZM5.99916 8.02734C2.96893 8.02734 0.463365 10.5557 0.0568479 14.029C-0.00735321 14.5775 0.446873 15.0273 0.999158 15.0273H10.9992C11.5514 15.0273 12.0057 14.5775 11.9415 14.029C11.535 10.5557 9.02938 8.02734 5.99916 8.02734ZM17.9992 8.02734C20.2083 8.02734 21.9992 6.23648 21.9992 4.02734C21.9992 1.8182 20.2083 0.0273438 17.9992 0.0273438C15.79 0.0273438 13.9992 1.8182 13.9992 4.02734C13.9992 6.23648 15.79 8.02734 17.9992 8.02734ZM17.9992 8.02734C21.0294 8.02734 23.535 10.5557 23.9415 14.029C24.0057 14.5775 23.5514 15.0273 22.9992 15.0273H12.9992C12.4469 15.0273 11.9926 14.5775 12.0568 14.029C12.4634 10.5557 14.9689 8.02734 17.9992 8.02734Z" fill="white"/>
</mask>
<g mask="url(#mask0_68_179)">
<path d="M8.99939 4.02734C8.99939 5.68419 7.65624 7.02734 5.99939 7.02734V9.02734C8.76081 9.02734 10.9994 6.78876 10.9994 4.02734H8.99939ZM5.99939 1.02734C7.65624 1.02734 8.99939 2.37049 8.99939 4.02734H10.9994C10.9994 1.26592 8.76081 -0.972656 5.99939 -0.972656V1.02734ZM2.99939 4.02734C2.99939 2.37049 4.34253 1.02734 5.99939 1.02734V-0.972656C3.23796 -0.972656 0.999391 1.26592 0.999391 4.02734H2.99939ZM5.99939 7.02734C4.34253 7.02734 2.99939 5.68419 2.99939 4.02734H0.999391C0.999391 6.78876 3.23796 9.02734 5.99939 9.02734V7.02734ZM1.0503 14.1452C1.41139 11.06 3.58502 9.02734 5.99939 9.02734V7.02734C2.35331 7.02734 -0.484194 10.0513 -0.936139 13.9127L1.0503 14.1452ZM0.999391 14.0273C0.995509 14.0273 1.00348 14.0258 1.01686 14.0397C1.02434 14.0474 1.03475 14.0615 1.04236 14.083C1.0505 14.106 1.05222 14.1288 1.0503 14.1452L-0.936139 13.9127C-1.07909 15.1341 -0.0693377 16.0273 0.999391 16.0273V14.0273ZM10.9994 14.0273H0.999391V16.0273H10.9994V14.0273ZM10.9484 14.1452C10.9465 14.1288 10.9482 14.106 10.9564 14.083C10.964 14.0615 10.9744 14.0474 10.9819 14.0397C10.9953 14.0258 11.0032 14.0273 10.9994 14.0273V16.0273C12.0681 16.0273 13.0778 15.1341 12.9349 13.9127L10.9484 14.1452ZM5.99939 9.02734C8.41376 9.02734 10.5874 11.06 10.9484 14.1452L12.9349 13.9127C12.4829 10.0513 9.64547 7.02734 5.99939 7.02734V9.02734ZM20.9994 4.02734C20.9994 5.68419 19.6562 7.02734 17.9994 7.02734V9.02734C20.7608 9.02734 22.9994 6.78876 22.9994 4.02734H20.9994ZM17.9994 1.02734C19.6562 1.02734 20.9994 2.37049 20.9994 4.02734H22.9994C22.9994 1.26592 20.7608 -0.972656 17.9994 -0.972656V1.02734ZM14.9994 4.02734C14.9994 2.37049 16.3425 1.02734 17.9994 1.02734V-0.972656C15.2379 -0.972656 12.9994 1.26592 12.9994 4.02734H14.9994ZM17.9994 7.02734C16.3425 7.02734 14.9994 5.68419 14.9994 4.02734H12.9994C12.9994 6.78876 15.2379 9.02734 17.9994 9.02734V7.02734ZM24.9349 13.9127C24.4829 10.0513 21.6454 7.02734 17.9994 7.02734V9.02734C20.4137 9.02734 22.5874 11.06 22.9484 14.1452L24.9349 13.9127ZM22.9994 16.0273C24.0681 16.0273 25.0778 15.1341 24.9349 13.9127L22.9484 14.1452C22.9465 14.1288 22.9482 14.106 22.9564 14.083C22.964 14.0615 22.9744 14.0474 22.9819 14.0397C22.9953 14.0258 23.0032 14.0273 22.9994 14.0273V16.0273ZM12.9994 16.0273H22.9994V14.0273H12.9994V16.0273ZM11.0638 13.9127C10.9209 15.1341 11.9306 16.0273 12.9994 16.0273V14.0273C12.9955 14.0273 13.0034 14.0258 13.0168 14.0397C13.0243 14.0474 13.0347 14.0615 13.0423 14.083C13.0505 14.106 13.0522 14.1288 13.0503 14.1452L11.0638 13.9127ZM17.9994 7.02734C14.3533 7.02734 11.5158 10.0513 11.0638 13.9127L13.0503 14.1452C13.4114 11.06 15.585 9.02734 17.9994 9.02734V7.02734Z" fill="white"/>
</g>
<path fill-rule="evenodd" clip-rule="evenodd" d="M14.0819 15.4459C15.2344 14.7439 16.004 13.4755 16.004 12.0273C16.004 9.8182 14.2132 8.02734 12.004 8.02734C9.7949 8.02734 8.00404 9.8182 8.00404 12.0273C8.00404 13.4755 8.77362 14.7439 9.92612 15.4459C7.76102 16.3544 6.18351 18.6579 6.01837 21.5269C6.0025 21.8026 6.2279 22.0273 6.50404 22.0273H17.504C17.7802 22.0273 18.0056 21.8026 17.9897 21.5269C17.8246 18.6579 16.247 16.3544 14.0819 15.4459Z" fill="#3B706C"/>
<mask id="mask1_68_179" style="mask-type:luminance" maskUnits="userSpaceOnUse" x="4" y="7" width="16" height="17">
<path d="M19.0176 7.02734H4.01758V23.0273H19.0176V7.02734Z" fill="white"/>
<path fill-rule="evenodd" clip-rule="evenodd" d="M14.0819 15.4459C15.2344 14.7439 16.004 13.4755 16.004 12.0273C16.004 9.8182 14.2132 8.02734 12.004 8.02734C9.7949 8.02734 8.00404 9.8182 8.00404 12.0273C8.00404 13.4755 8.77362 14.7439 9.92612 15.4459C7.76102 16.3544 6.18351 18.6579 6.01837 21.5269C6.0025 21.8026 6.2279 22.0273 6.50404 22.0273H17.504C17.7802 22.0273 18.0056 21.8026 17.9897 21.5269C17.8246 18.6579 16.247 16.3544 14.0819 15.4459Z" fill="black"/>
</mask>
<g mask="url(#mask1_68_179)">
<path d="M14.082 15.4459L13.5618 14.5919L11.8897 15.6104L13.6951 16.368L14.082 15.4459ZM9.92623 15.4459L10.3131 16.368L12.1186 15.6104L10.4464 14.5919L9.92623 15.4459ZM15.0041 12.0273C15.0041 13.1123 14.4288 14.0638 13.5618 14.5919L14.6023 16.2999C16.0403 15.424 17.0041 13.8387 17.0041 12.0273H15.0041ZM12.0041 9.02734C13.661 9.02734 15.0041 10.3704 15.0041 12.0273H17.0041C17.0041 9.26592 14.7655 7.02734 12.0041 7.02734V9.02734ZM9.00415 12.0273C9.00415 10.3704 10.3473 9.02734 12.0041 9.02734V7.02734C9.24273 7.02734 7.00415 9.26592 7.00415 12.0273H9.00415ZM10.4464 14.5919C9.57946 14.0638 9.00415 13.1123 9.00415 12.0273H7.00415C7.00415 13.8387 7.968 15.424 9.40601 16.2999L10.4464 14.5919ZM9.5393 14.5238C6.9711 15.6014 5.20387 18.2775 5.02013 21.4695L7.01682 21.5844C7.16338 19.0383 8.55116 17.1074 10.3131 16.368L9.5393 14.5238ZM5.02013 21.4695C4.96912 22.3557 5.69044 23.0273 6.50415 23.0273V21.0273C6.76558 21.0273 7.0361 21.2496 7.01682 21.5844L5.02013 21.4695ZM6.50415 23.0273H17.5041V21.0273H6.50415V23.0273ZM17.5041 23.0273C18.3178 23.0273 19.0392 22.3557 18.9881 21.4695L16.9915 21.5844C16.9722 21.2496 17.2427 21.0273 17.5041 21.0273V23.0273ZM18.9881 21.4695C18.8044 18.2775 17.0372 15.6014 14.469 14.5238L13.6951 16.368C15.4571 17.1074 16.8449 19.0383 16.9915 21.5844L18.9881 21.4695Z" fill="white"/>
</g>
</g>
</g>
</g>
<defs>
<clipPath id="clip0_68_179">
<rect width="24" height="23" fill="white" transform="translate(0 0.0273438)"/>
</clipPath>
<clipPath id="clip1_68_179">
<rect width="24" height="23" fill="white" transform="translate(0 0.0273438)"/>
</clipPath>
<clipPath id="clip2_68_179">
<rect width="24" height="23" fill="white" transform="translate(0 0.0273438)"/>
</clipPath>
</defs>
</svg>
