<svg width="24" height="25" viewBox="0 0 24 25" fill="none" xmlns="http://www.w3.org/2000/svg">
<g clip-path="url(#clip0_68_144)">
<g clip-path="url(#clip1_68_144)">
<path d="M17 5.02734H5C3.89543 5.02734 3 5.92277 3 7.02734V19.0273C3 20.1319 3.89543 21.0273 5 21.0273H17C18.1046 21.0273 19 20.1319 19 19.0273V7.02734C19 5.92277 18.1046 5.02734 17 5.02734Z" fill="white" stroke="black"/>
<path d="M16.3106 1.92346C15.8158 1.55511 15.1127 1.90822 15.1127 2.52504V4.53772C11.8704 4.67539 9.78692 6.15077 8.49046 7.94507C7.17933 9.75968 6.6868 11.877 6.5468 13.2138C6.50829 13.5816 6.73199 13.8719 7.02323 13.9748C7.30354 14.0737 7.64063 14.0002 7.85623 13.7359C9.21056 12.0755 10.569 11.2352 11.828 10.8018C12.9979 10.399 14.1077 10.3377 15.1127 10.3287V12.3402C15.1127 12.9509 15.8036 13.3056 16.2999 12.9495L23.0135 8.13288C23.4261 7.8369 23.4315 7.22513 23.0242 6.92191L16.3106 1.92346Z" fill="#3B706C"/>
<path d="M16.3106 1.92346L16.0142 2.32152M16.3106 1.92346C15.8158 1.55511 15.1127 1.90822 15.1127 2.52504V4.53772C11.8704 4.67539 9.78692 6.15077 8.49046 7.94507C7.17933 9.75968 6.6868 11.877 6.5468 13.2138C6.50829 13.5816 6.73199 13.8719 7.02323 13.9748C7.30354 14.0737 7.64063 14.0002 7.85623 13.7359C9.21056 12.0755 10.569 11.2352 11.828 10.8018C12.9979 10.399 14.1077 10.3377 15.1127 10.3287V12.3402C15.1127 12.9509 15.8036 13.3056 16.2999 12.9495L23.0135 8.13288C23.4261 7.8369 23.4315 7.22513 23.0242 6.92191L16.3106 1.92346Z" stroke="white"/>
</g>
</g>
<defs>
<clipPath id="clip0_68_144">
<rect width="24" height="24" fill="white" transform="translate(0 0.0273438)"/>
</clipPath>
<clipPath id="clip1_68_144">
<rect width="24" height="24" fill="white" transform="translate(0 0.0273438)"/>
</clipPath>
</defs>
</svg>
