<svg width="16" height="15" viewBox="0 0 16 15" fill="none" xmlns="http://www.w3.org/2000/svg">
<g clip-path="url(#clip0_68_248)">
<path d="M13.5737 4.06125C13.8594 5.175 13.8594 7.5 13.8594 7.5C13.8594 7.5 13.8594 9.825 13.5737 10.9388C13.415 11.5544 12.9506 12.0387 12.3625 12.2025C11.2944 12.5 7.60938 12.5 7.60938 12.5C7.60938 12.5 3.92625 12.5 2.85625 12.2025C2.26562 12.0363 1.80187 11.5525 1.645 10.9388C1.35938 9.825 1.35938 7.5 1.35938 7.5C1.35938 7.5 1.35938 5.175 1.645 4.06125C1.80375 3.44563 2.26812 2.96125 2.85625 2.7975C3.92625 2.5 7.60938 2.5 7.60938 2.5C7.60938 2.5 11.2944 2.5 12.3625 2.7975C12.9531 2.96375 13.4169 3.4475 13.5737 4.06125ZM6.35938 9.6875L10.1094 7.5L6.35938 5.3125V9.6875Z" fill="white"/>
</g>
<defs>
<clipPath id="clip0_68_248">
<rect width="15" height="15" fill="white" transform="translate(0.109375)"/>
</clipPath>
</defs>
</svg>
